<svg class="c-logo__img" xmlns="http://www.w3.org/2000/svg" xmlns:xlink="http://www.w3.org/1999/xlink" width="286" height="119" viewBox="0 0 286 119"><defs><path id="path-1" d="M16.2883301 9.97307692c.151886.15673078.2682037.34711538.3412628.55384618-.3047333.4461538-.4508514.9807692-.4172058 1.5192307.0499878.2913462.2249451.5471154.4796905.6951924.7344361-.073077 1.4419556-.310577 2.0696869-.6951924.6931-.1384615 1.4515686-.2028846 2.133133-.3423076.6834869-.1394231 2.2504119-1.4009616 1.696701-2.36250005-.3412628-.13942307-.9661102-.35576923-1.0670471-.34326923-1.0103302.13461539-2.03508.06538462-3.0175324-.20096154-.7690429.34423077-1.5102081.73557693-2.2186889 1.17596154z"></path></defs><g id="Branch/blog" fill="none" fill-rule="evenodd" stroke="none" stroke-width="1"><g id="Group" transform="translate(20 10)"><g id="blog-logo-final"><path id="Fill-11" fill="#4A4A4A" d="M123.046875 70.1923077h6.344372V29.8076923h-6.344372z"></path><path id="Fill-12" fill="#4A4A4A" d="M140.081637 29.8076923l-6.460421 40.3846154h5.826464l1.096238-7.3273082h7.785882l1.096238 7.3273082h6.401917l-6.459462-40.3846154h-9.286856zm4.268904 7.1536707h.114131l3.00003 20.4230249h-6.114191l3.00003-20.4230249z"></path><path id="Clip-14" fill="#36ACB8" d="M161.499023 29.8076923v40.3846154h9.979318c6.344372 0 9.632128-3.3461182 9.632128-9.5769203v-3.2885589c0-4.2689868-1.327379-7.2687895-4.730226-8.595533v-.1160781c2.827394-1.3267435 4.095309-3.9226712 4.095309-8.07558v-1.4428216c0-6.2317615-2.826434-9.2891235-9.400987-9.2891235h-9.575542zm6.345331 5.7693678h3.056616c2.250022 0 3.23021 1.2691842 3.23021 4.1538681v2.2505715c0 3.2300401-1.44151 4.2689868-3.806623 4.2689868h-2.480203V35.5770601zm0 16.4427942h2.826434c2.88398 0 4.095309 1.1531061 4.095309 4.9030993v3.5187963c0 3.000762-1.153784 3.98119-3.287756 3.98119h-3.633987V52.0198543z"></path><path id="Fill-16" fill="#36ACB8" d="M185.531616 29.8076923v40.3846154h16.785011v-5.7693678h-10.43968V29.8076923z"></path><path id="Clip-18" fill="#36ACB8" d="M203.934988 39.3947315V60.413968c0 6.4670881 3.406032 10.1629786 9.641145 10.1629786 6.235112 0 9.641144-3.6958905 9.641144-10.1629786V39.3947315c0-6.4680484-3.406032-10.1639388-9.641144-10.1639388-6.235113 0-9.641145 3.6958904-9.641145 10.1639388zm6.350311 21.4234895V38.9895182c0-2.8873844 1.270062-3.9839567 3.290834-3.9839567 2.019811 0 3.290833 1.0965723 3.290833 3.9839567V60.818221c0 2.8873844-1.271022 3.9839568-3.290833 3.9839568-2.020772 0-3.290834-1.0965724-3.290834-3.9839568z"></path><path id="Clip-9" fill="#4A4A4A" d="M100.148379 39.3944954c0 4.6185555 1.675138 7.9686886 6.98566 12.6458162 4.156645 3.6381927 5.426678 5.8322466 5.426678 8.7771759 0 2.8873173-1.270033 3.9272125-3.289797 3.9272125-2.021685 0-3.290758-1.0398952-3.290758-3.9272125v-2.8873174h-6.0045761v2.4830737c0 6.466938 3.2331591 10.1637028 9.4690871 10.1637028 6.233048 0 9.467167-3.6967648 9.467167-10.1637028 0-4.6195157-1.675137-7.9686885-6.985659-12.6458162-4.156646-3.6381926-5.427638-5.8322466-5.427638-8.7771758 0-2.8873174 1.155797-3.9838642 3.175562-3.9838642 2.020724 0 3.175561 1.0965468 3.175561 3.9838642v1.6745864h6.002656v-1.2703428c0-6.4678981-3.174601-10.1637027-9.351011-10.1637027-6.17737 0-9.352932 3.6958046-9.352932 10.1637027z"></path><path id="Fill-4" fill="#4A4A4A" d="M0 29.8076923v39.9038462h17.0978793v-5.7006849H6.26979101V52.3251132h8.60579989v-5.7006849H6.26979101V35.5083772H17.0978793v-5.7006849z"></path><path id="Clip-6" fill="#4A4A4A" d="M21.1486816 39.3944954v21.0187484c0 6.466938 3.2321996 10.1637028 9.4681272 10.1637028 6.2349676 0 9.4671672-3.6967648 9.4671672-10.1637028v-5.370391h-6.0036163v5.7746347c0 2.8873173-1.2700326 3.9272125-3.2917173 3.9272125-2.0207247 0-3.2897974-1.0398952-3.2897974-3.9272125V38.9902518c0-2.8873174 1.2690727-3.9838642 3.2897974-3.9838642 2.0216847 0 3.2917173 1.0965468 3.2917173 3.9838642v4.3304959h6.0036163v-3.9262523c0-6.4678981-3.2321996-10.1637027-9.4671672-10.1637027-6.2359276 0-9.4681272 3.6958046-9.4681272 10.1637027z"></path><path id="Clip-21" fill="#36ACB8" d="M227.006277 39.3944954v21.0187484c0 6.466938 3.2322 10.1637028 9.467167 10.1637028 6.235928 0 9.467167-3.6967648 9.467167-10.1637028V47.5936317h-8.890228v5.7746347h2.886612v7.4492211c0 2.8873173-1.270033 3.9272125-3.289797 3.9272125-2.020725 0-3.290758-1.0398952-3.290758-3.9272125V38.9902518c0-2.8873174 1.270033-3.9838642 3.290758-3.9838642 2.019764 0 3.289797 1.0965468 3.289797 3.9838642v4.3304959h6.003616v-3.9262523c0-6.4678981-3.231239-10.1637027-9.467167-10.1637027-6.234967 0-9.467167 3.6958046-9.467167 10.1637027z"></path><g id="icon" fill="#36ACB8" transform="translate(36.529541)"><path id="Clip-24" d="M31.1731567 7.84806519c.1134339 2.29230771 1.136261 4.44230771 2.8387299 5.97307691 0 0 2.3907623-.7846154 2.5945587-5.71442307l-.0336456.02115385c.2037964-2.78365385-.8968964-5.50384616-2.9781189-7.35865385-1.6515198 1.97884616-2.5138092 4.5-2.4215241 7.07884616zm18.0292511 1.44615384c-1.3948516 2.17980767-1.8437805 4.83653847-1.2410431 7.35673077 0 0 2.6560822.7528846 6.0514069-3.6951923l-.0307617.0221154c1.9937439-2.4153846 2.7358703-5.63173079 2.0023956-8.67980771-2.7954712.77211538-5.2093048 2.55096153-6.7819977 4.99615384zm-35.652832-3.24519231c-.4095154 1.80769231-.085556 3.70673077.8997803 5.27403848 1.1218414 1.7884615 2.8791046 3.0817308 4.9170685 3.6201923.5094909-2.1971154-.0278778-4.5076923-1.4573365-6.25192308-1.7803344-2.36826923-3.2991943-2.68269231-3.9778747-2.68269231-.2460938 0-.3816376.04038461-.3816376.04038461zM62.3578491 19.9336421c-1.4448395 1.1730769-2.3657684 2.8730769-2.5609131 4.7269231 0 0 1.6178742 1.1490384 4.9391785-1.0634616v-.0326923c1.9427948-1.1961538 3.2145996-3.2355769 3.4385834-5.5105769-.1759186-.0115384-.3518372-.0173077-.5258332-.0173077-1.92453 0-3.795227.6673077-5.2910156 1.8971154zM.93630981 18.4884498c.19610596 1.8528846 1.11607361 3.5538462 2.56091309 4.7259615 1.62940979 1.3451923 3.71063232 2.0144231 5.81684876 1.8692308v-.0317308c-.21917725-2.2605769-1.4756012-4.2875-3.39628602-5.489423-1.6322937-1.0923077-2.86372375-1.3701923-3.69332885-1.3701923-.85940552 0-1.28814698.2961538-1.28814698.2961538zM58.7923737 73.3288344c.1951446 1.8528846 1.1160736 3.5519231 2.560913 4.7269231 1.6476746 1.3105769 3.7154389 1.9788461 5.8168488 1.8788461-.2066803-2.275-1.4621429-4.3221153-3.3953247-5.5317307-1.633255-1.0932693-2.8656464-1.3721154-3.6952515-1.3721154-.8584442 0-1.2871856.2980769-1.2871856.2980769zM3.60488892 76.2230652l-.01153565-.0326923c-1.44387817 1.1740384-2.36384582 2.8740384-2.55995178 4.7278846 0 0 1.66017151 1.0730769 4.98243713-1.075 1.92068482-1.2009615 3.17518616-3.2288462 3.39532471-5.4903846-.17591858-.0096154-.35087585-.0163462-.52679443-.0163462-1.91876221 0-3.78465271.6634616-5.27947998 1.8865385zM14.0619507 86.3644113l-.0115357-.0336538c-1.3977356 2.2076923-1.870697 4.8788461-1.3179473 7.4336538 0 0 2.7012634.7634616 6.0975494-3.6836538 1.9947052-2.4692308 2.734909-5.7269231 2.0023956-8.8192308-2.8127746.7942308-5.2275696 2.6134616-6.770462 5.1028846zM50.4944 83.119219v-.0326923c-.4095154 1.8086539-.0845947 3.7067308.9007416 5.275 1.1352997 1.7730769 2.8887177 3.0596154 4.9170685 3.6096154.5094909-2.1980769-.0288391-4.5086538-1.4563751-6.2519231-1.8370514-2.3336538-3.3386078-2.6375-3.9990235-2.6375-.2335968 0-.3624115.0375-.3624115.0375zm-18.2330475 8.4865385c-.1192016 2.8086538.8219147 5.5586538 2.6358948 7.7028846 2.2590637-2.0086538 3.4472351-4.9634615 3.2136383-7.9817308-.2335968-5.3817307-2.8060455-6.2192307-2.8060455-6.2192307v-.0336539c-1.8408966 1.6846154-2.9367828 4.0355769-3.0434876 6.5317308z"></path></g></g><g id="icon" transform="translate(44.219971 24.038462)"><path id="Clip-5" fill="#FF7950" d="M.56620789 25.9442308c0 14.1403846 11.46162411 25.6048077 25.60047911 25.6048077 14.1378937 0 25.5995178-11.4644231 25.5995178-25.6048077C51.7662048 11.8019231 40.3045807.3375 26.166687.3375 12.027832.3375.56620789 11.8019231.56620789 25.9442308zm4.6632843 8.6778846c-3.5212555-8.45-1.60153198-18.1894231 4.85939021-24.67019232 6.4638062-6.48269231 16.1950837-8.4298077 24.6526337-4.93269231C43.2000275 8.51634615 48.7169847 16.7682692 48.7169847 25.9221154c.0105391 5.9903846-2.3600358 11.7413461-6.5888109 15.9826923-4.2297363 4.2423077-9.9716034 6.6298077-15.9614868 6.6365385h-.0644073c-9.1266175 0-17.36114506-5.4894231-20.87278751-13.9192308z"></path><path id="Clip-8" fill="#36ACB8" d="M7.39050293 25.9432692c0 10.3711539 8.40660097 18.7807693 18.77618407 18.7807693 10.3705444 0 18.7771454-8.4096154 18.7771454-18.7807693 0-10.3721154-8.406601-18.7807692-18.7771454-18.7807692-10.3695831 0-18.77618407 8.4086538-18.77618407 18.7807692z"></path><path id="Clip-11" fill="#D3DA31" d="M10.3070984 15.8951923c.2509003-.0480769.4960327-.0596154.6786804-.1269231.379715-.2125.734436-.4663461 1.0564728-.7596154.2730102-.1221153.4931488-.0423076.6940613.0384616.2547454.1.4825744.2019231.756546-.1019231.4902649-.5461538-.2028351-1.6586538-.2028351-2.3538461.0115356-.1442308.0528717-.2846154.1134338-.4182693-1.1852874 1.1-2.225418 2.3509616-3.0963592 3.7221154z"></path><path id="Clip-14" fill="#D3DA31" d="M7.57987976 23.3c-.0519104.3673077-.09036255.7355769-.12016296 1.1048077-.00961304.1057692-.01826477.2115385-.0249939.3182692-.0269165.4192308-.04421997.8403846-.04329677 1.2605769.00772853 3.2.81426235 6.2096154 2.23122402 8.8432693.19610595-.1903846.39990235-.3288462.59600825-.5355769.2778168-.4807693.6181183-.9615385.8949738-1.4538462.5777435-.3519231 1.1314545-.7451923 1.6544037-1.1769231.1374664-.4173077.3412628-.8980769.4796905-1.3153846.1374665-.4163461.9593811-.9625.8315278-1.7317308-.3095398-1.0903846-1.6957398-1.2307692-2.4542084-1.9903846-.3403015-.4807692-.6921387-1.0692307-1.0651245-1.5182692-.78826908-.9115385-1.81494144-1.5817308-2.96369938-1.9355769-.00672912.0432692-.01057434.0875-.01634216.1307692z"></path><path id="Clip-17" fill="#D3DA31" d="M27.9777832 12.55c-.9055481.2451923-1.7216949.7509615-2.3465424 1.4538462-.4796905.7596153.1384278 1.2403846-.756546 1.6576923-.4989166-.2346154-.962265-.5365385-1.3765869-.898077-.3883667.0278847-.7421265.2317308-.9603424.5557693-.0624847.8336538.5556335.9615384.5556335 1.7961538-.3412628.4817308-1.1747131.5567308-1.3765869 1.0701923-.2037964.5134616 0 1.3144231-.4152832 1.7961539-.6190796.5567307-1.2381591 1.176923-1.7918701 1.7326923-.9738006 1.4538461-.8603668 3.3778846.2758942 4.7057692.4691162.4711539 1.069931.4548077 1.7072754.4375.4902649-.0125 1.0016784-.0259615 1.4929046.1826923.832489.3432692.9603424 1.9355769 1.1727906 2.6961539.4162445 1.239423-.3403016 1.7961538-.3403016 2.9721153 0 1.1769231.4162446 4.5663462 2.0696869 4.4923077 1.8658905-.064423 2.272522-1.9355769 3.3059235-3.2086538.4585419-.3432692.854599-.7634615 1.1747131-1.2413462 0-.6192307.0634461-1.314423.0634461-1.9346153.4152832-1.0692308 1.7274627-1.4548077 2.4099884-2.2778847.6834869-.8240384.063446-1.3798077.4162445-2.0009615.0346069 0 .0644073-.0278846.0644073-.0634615.553711-.3423077 1.0660859-.6211539 1.7265015-.9625.2614746-.335577.5392914-.6567308.8334503-.9634616l.6190796-.2019231c2.1321716 1.0692308 1.3756256 3.3144231 2.8906403 4.4913462.1374664-.0644231.2018737-.1384615.3403015-.2028846.1153564-.3096154.1826477-.6346154.2037964-.9634616.3162689-.9634615 1.2650757-1.5711538 2.2715606-1.4548076.6623383.6576923 1.1602936 1.464423 1.449646 2.3538461.1393891.8346154-.4152832 1.3153846-.4152832 1.9990385.0644074.5913461.2855072 1.1509615.6277314 1.6346154.0009613 0 .0009613-.0009616.0009613-.0028847.6921386-1.9567307 1.0718536-4.0625 1.0718536-6.2567307v-.0076923c0-.3086539-.0076904-.6144231-.0230713-.9182693-.0028839-.0480769-.0067291-.0971154-.0086517-.1442307-.2605133-4.6288462-2.196579-8.8057693-5.2093048-11.9413462-.4085541-.0105769-.844986.0105769-1.2496949.0653846-1.9379882.3240385-3.89328.5307693-5.8553009.6201923-1.6255645 0-2.5628357-1.151923-3.9624939-1.151923-.2076416 0-.4248962.025-.6565704.0836538zm.3739471 8.6826923c-.4796905-.0634615-1.0670471-.0634615-1.5150146-.1384615-.063446 0-2.4849701-1.935577-2.5493774-2.075.0836334-.2221154.2585907-.398077.4796905-.4807693.6277313.2663462 1.2093201.6259616 1.7284241 1.0692308l.9603424.2028846c.3412628.2778846.6931.4817308 1.0670471.7596154.4220123.1519231.8632507.2451923 1.310257.2778846 0 .0634616.0644073.1394231.0644073.2028846v.3432693c-.1663055.0423077-.3258819.1028846-.4796905.1817307-.3816376-.0048077-.7527008-.1240384-1.0660859-.3432692z"></path><path id="Clip-20" fill="#D3DA31" d="M31.6268921 33.4365385c-.6834869.3836538-1.1247254 1.0884615-1.1727905 1.8721153.1028595.2086539.2710876.3769231.4787292.4807693.7584686-.2788462 1.5899963-1.5182693 1.0670471-2.2778846-.0932464-.0519231-.1970672-.0788462-.3028106-.0788462-.0230713 0-.0471039.0009615-.0701752.0038462z"></path><mask id="mask-2" fill="#fff"><use xlink:href="#path-1"></use></mask><use id="Clip-23" fill="#D3DA31" xlink:href="#path-1"></use></g></g></g></svg>